# xmcd
#
# Track frame offsets: 
#        183
#        16313
#        26670
#        56278
#        63073
#        66425
#        74008
#        86035
#        90970
#        93635
#        101763
#        114183
#        125323
#        137485
#
# Disc length: 1974 seconds
#
# Revision: 0
# Processed by: cddbd v1.5.2PL0 Copyright (c) Steve Scherf et al.
# Submitted via: ExactAudioCopy v0.95a5
#
DISCID=b507b40e
DTITLE=이선희 - 오즈의 마법사
DYEAR=1900
DGENRE=Acoustic
TTITLE0=도로시 도로시
TTITLE1=무지개 저쪽
TTITLE2=만치킨의 나라
TTITLE3=노란 벽돌길
TTITLE4=용기가 있다면
TTITLE5=양귀비
TTITLE6=이별의 친구
TTITLE7=머리가 좋다면
TTITLE8=마왕을 만나러 가자
TTITLE9=멋진나라 오즈
TTITLE10=윙키 행진곡
TTITLE11=숲속의 왕자
TTITLE12=오 사랑 나의 집
TTITLE13=서곡
EXTD=
EXTT0=
EXTT1=
EXTT2=
EXTT3=
EXTT4=
EXTT5=
EXTT6=
EXTT7=
EXTT8=
EXTT9=
EXTT10=
EXTT11=
EXTT12=
EXTT13=
PLAYORDER=
